<svg width="358" height="193" viewBox="0 0 358 193" fill="none" xmlns="http://www.w3.org/2000/svg">
<g clip-path="url(#clip0_1065_6093)">
<path d="M158.529 67.6892C155.114 68.207 151.7 68.7247 148.284 69.2425C139.798 74.7275 131.309 80.2126 122.823 85.6996C123.756 90.8752 124.686 96.0487 125.618 101.224C135.037 104.64 144.455 108.054 153.872 111.47C158.012 110.643 162.152 109.814 166.292 108.987C167.47 105.14 169.319 97.2767 167.533 87.5623C165.712 77.6416 161.031 70.8533 158.529 67.6892Z" fill="#59E2C9"/>
<path d="M153.874 113.452C153.644 113.452 153.416 113.412 153.197 113.333L124.942 103.087C124.277 102.845 123.791 102.27 123.666 101.573L120.871 86.0487C120.731 85.2612 121.076 84.4657 121.746 84.0312L147.207 67.5741C147.443 67.4214 147.709 67.3202 147.986 67.2786L158.232 65.7253C158.936 65.6182 159.644 65.8979 160.085 66.4573C163.405 70.6589 167.732 77.6674 169.483 87.2013C171.205 96.5705 169.729 104.535 168.186 109.566C167.972 110.262 167.393 110.788 166.679 110.931L154.259 113.414C154.134 113.44 154.003 113.452 153.874 113.452ZM127.368 99.7464L154.027 109.415L164.723 107.277C166 102.649 167.036 95.8325 165.582 87.9194C164.098 79.8396 160.593 73.7396 157.669 69.8257L149 71.1389L125.011 86.6458L127.368 99.7464Z" fill="#59E2C9"/>
<path d="M164.12 80.7303C168.363 79.798 172.606 78.8676 176.849 77.9352L164.12 80.7303Z" fill="#59E2C9"/>
<path d="M164.118 82.714C163.207 82.714 162.386 82.0812 162.182 81.1548C161.947 80.0856 162.624 79.0263 163.693 78.7922L176.422 75.9971C177.492 75.763 178.551 76.4395 178.785 77.5087C179.019 78.5779 178.343 79.6373 177.273 79.8713L164.544 82.6664C164.401 82.6982 164.258 82.714 164.118 82.714Z" fill="#59E2C9"/>
<path d="M167.536 96.2551C171.469 95.8405 175.401 95.4278 179.335 95.0132L167.536 96.2551Z" fill="#59E2C9"/>
<path d="M167.532 98.2388C166.53 98.2388 165.669 97.481 165.562 96.4633C165.447 95.3743 166.238 94.3983 167.327 94.2832L179.126 93.0414C180.217 92.9263 181.191 93.7178 181.306 94.8069C181.421 95.896 180.63 96.872 179.541 96.987L167.742 98.2289C167.673 98.2348 167.601 98.2388 167.532 98.2388Z" fill="#59E2C9"/>
<path d="M216.048 53.7931C220.085 54.5687 224.122 55.3464 228.157 56.122C237.238 62.7973 246.321 69.4726 255.402 76.1498C254.55 80.1094 253.695 84.0669 252.842 88.0265C243.526 91.6746 234.213 95.3227 224.898 98.9708C219.696 98.6593 214.497 98.3499 209.296 98.0384C211.547 83.2913 213.797 68.5422 216.048 53.7931Z" fill="#59E2C9"/>
<path d="M209.062 97.9968C205.269 97.5088 202.702 87.0564 203.24 78.3776C204.027 65.6955 211.684 52.9639 216.048 53.7951C220.551 54.654 220.91 69.8376 220.938 71.0496C221.027 74.8624 220.706 83.0731 215.814 91.141C213.771 94.5153 211.474 98.3062 209.062 97.9968Z" fill="#E36E42"/>
<path d="M213.807 69.8341C214.28 67.24 214.049 65.0248 213.29 64.8863C212.532 64.7478 211.533 66.7384 211.059 69.3325C210.586 71.9266 210.817 74.1418 211.575 74.2804C212.334 74.4189 213.333 72.4282 213.807 69.8341Z" fill="#59E2C9"/>
<path d="M211.726 81.2373C212.199 78.6432 211.968 76.428 211.209 76.2895C210.451 76.151 209.452 78.1416 208.978 80.7357C208.505 83.3298 208.736 85.545 209.494 85.6836C210.253 85.8221 211.252 83.8314 211.726 81.2373Z" fill="#59E2C9"/>
<path d="M2.97335 193C2.30485 193 1.63239 192.776 1.07696 192.318C-0.188626 191.27 -0.365173 189.394 0.682207 188.128L47.1478 131.98L75.1692 151.732L108.205 95.6163L128.139 91.629C129.75 91.3076 131.319 92.3511 131.641 93.9638C131.962 95.5746 130.918 97.1438 129.306 97.4651L111.982 100.931L77.022 160.318L48.223 140.016L5.26847 191.923C4.67931 192.633 3.8303 193 2.97335 193Z" fill="#59E2C9"/>
<path d="M249.346 84.4816C247.739 84.4816 246.416 83.2001 246.373 81.5833C246.329 79.9408 247.626 78.574 249.269 78.5303L265.414 78.1058L290.438 40.1073L324.182 34.9515L344.886 10.6448C345.951 9.39304 347.83 9.24426 349.081 10.3095C350.333 11.3748 350.482 13.2534 349.417 14.5051L327.273 40.5001L293.951 45.5903L268.675 83.9737L249.426 84.4796C249.4 84.4816 249.374 84.4816 249.346 84.4816Z" fill="#59E2C9"/>
<path d="M354.062 19.8791C352.344 19.8791 350.767 18.7464 350.277 17.0106L348.252 9.82946L343.38 12.5908C341.49 13.662 339.089 12.9975 338.016 11.107C336.945 9.21648 337.61 6.81616 339.5 5.74494L348.738 0.50985C349.789 -0.0872553 351.057 -0.166605 352.174 0.293623C353.291 0.75385 354.136 1.70208 354.463 2.86455L357.849 14.8741C358.438 16.965 357.22 19.1391 355.129 19.7283C354.774 19.8315 354.415 19.8791 354.062 19.8791Z" fill="#59E2C9"/>
<path d="M155.504 97.4314C155.473 97.4314 155.439 97.4314 155.407 97.4274C154.588 97.3739 153.965 96.6677 154.019 95.8464C154.322 91.1271 153.794 86.4455 152.447 81.9285C151.253 77.9273 149.442 74.1502 147.06 70.7045C146.594 70.028 146.762 69.1016 147.439 68.6354C148.115 68.1673 149.041 68.3379 149.508 69.0143C152.067 72.718 154.015 76.7767 155.298 81.0794C156.746 85.9337 157.313 90.9664 156.986 96.0388C156.937 96.8264 156.282 97.4314 155.504 97.4314Z" fill="white"/>
<path d="M223.767 96.388C223.535 96.388 223.301 96.3344 223.08 96.2193C222.352 95.8385 222.069 94.9398 222.45 94.2118C224.227 90.8057 225.679 87.2132 226.766 83.5333C227.728 80.276 228.416 76.9116 228.811 73.5353C228.906 72.718 229.648 72.1328 230.462 72.23C231.277 72.3252 231.862 73.0631 231.767 73.8804C231.354 77.4254 230.63 80.9564 229.621 84.3764C228.478 88.2407 226.954 92.0118 225.088 95.5885C224.822 96.0963 224.302 96.388 223.767 96.388Z" fill="white"/>
</g>
<defs>
<clipPath id="clip0_1065_6093">
<rect width="358" height="193" fill="white"/>
</clipPath>
</defs>
</svg>
